<svg xmlns="http://www.w3.org/2000/svg" fill="currentColor" viewBox="0 0 36 36">
    <path d="M27.14 2H8.66c-.61 0-1.19.24-1.62.67-1.1 1.1-3.27 3.27-4.37 4.37-.43.43-.67 1.02-.67 1.62V31.71c0 .61.24 1.19.67 1.61.42.43 1.01.67 1.61.67H21.43v-5.44c-2.09-1.67-3.43-4.25-3.43-7.13 0-5.05 4.09-9.14 9.14-9.14.79 0 1.55.1 2.29.29V4.29c0-1.27-1.03-2.29-2.29-2.29zM14.57 23.71H7.71c-.63 0-1.14-.51-1.14-1.14s.51-1.14 1.14-1.14h6.86c.63 0 1.14.51 1.14 1.14s-.51 1.14-1.14 1.14zm0-5.71H7.71c-.63 0-1.14-.51-1.14-1.14s.51-1.14 1.14-1.14h6.86c.63 0 1.14.51 1.14 1.14s-.51 1.14-1.14 1.14zm3.43-5.71H7.71c-.63 0-1.14-.51-1.14-1.14s.51-1.14 1.14-1.14h10.29c.63 0 1.14.51 1.14 1.14s-.51 1.14-1.14 1.14zM27.14 30.57c1.21 0 2.37-.24 3.43-.66v4.09l-3.43-1.14-3.43 1.14v-4.09c1.09.43 2.23.66 3.43.66z"></path>
    <path d="M34,21.43c.03,3.73-3.12,6.89-6.86,6.86-3.7,.04-6.9-3.12-6.86-6.86,0-3.78,3.07-6.86,6.86-6.86,3.69-.02,6.88,3.03,6.86,6.86Z"></path>
</svg>