<svg viewBox="0 0 140 24" fill="currentColor" xmlns="http://www.w3.org/2000/svg">
    <path d="M13.5619 1.96889L16.1715 7.24594L22.0068 8.09222C23.4353 8.29952 24.0059 10.0512 22.972 11.0567L18.7497 15.1642L19.7465 20.9643C19.9907 22.3841 18.4973 23.4667 17.2196 22.7965L12.0002 20.0583L6.78074 22.7965C5.50303 23.4667 4.00968 22.3841 4.25382 20.9643L5.25065 15.1642L1.02804 11.0567C-0.0055216 10.0512 0.564776 8.2992 1.99321 8.09222L7.82855 7.24594L10.4381 1.96889C11.0771 0.677038 12.9229 0.677038 13.5619 1.96889Z"/>
    <path d="M42.5619 1.96889L45.1715 7.24594L51.0068 8.09222C52.4353 8.29952 53.0059 10.0512 51.972 11.0567L47.7497 15.1642L48.7465 20.9643C48.9907 22.3841 47.4973 23.4667 46.2196 22.7965L41.0002 20.0583L35.7807 22.7965C34.503 23.4667 33.0097 22.3841 33.2538 20.9643L34.2507 15.1642L30.028 11.0567C28.9945 10.0512 29.5648 8.2992 30.9932 8.09222L36.8286 7.24594L39.4381 1.96889C40.0771 0.677038 41.9229 0.677038 42.5619 1.96889Z"/>
    <path d="M71.5619 1.96889L74.1715 7.24594L80.0068 8.09222C81.4353 8.29952 82.0059 10.0512 80.972 11.0567L76.7497 15.1642L77.7465 20.9643C77.9907 22.3841 76.4973 23.4667 75.2196 22.7965L70.0002 20.0583L64.7807 22.7965C63.503 23.4667 62.0097 22.3841 62.2538 20.9643L63.2507 15.1642L59.028 11.0567C57.9945 10.0512 58.5648 8.2992 59.9932 8.09222L65.8286 7.24594L68.4381 1.96889C69.0771 0.677038 70.9229 0.677038 71.5619 1.96889Z"/>
    <path d="M100.562 1.96889L103.171 7.24594L109.007 8.09222C110.435 8.29952 111.006 10.0512 109.972 11.0567L105.75 15.1642L106.747 20.9643C106.991 22.3841 105.497 23.4667 104.22 22.7965L99.0002 20.0583L93.7807 22.7965C92.503 23.4667 91.0097 22.3841 91.2538 20.9643L92.2507 15.1642L88.028 11.0567C86.9945 10.0512 87.5648 8.2992 88.9932 8.09222L94.8286 7.24594L97.4381 1.96889C98.0771 0.677038 99.9229 0.677038 100.562 1.96889Z"/>
    <path d="M129.562 1.96889L132.171 7.24594L138.007 8.09222C139.435 8.29952 140.006 10.0512 138.972 11.0567L134.75 15.1642L135.747 20.9643C135.991 22.3841 134.497 23.4667 133.22 22.7965L128 20.0583L122.781 22.7965C121.503 23.4667 120.01 22.3841 120.254 20.9643L121.251 15.1642L117.028 11.0567C115.994 10.0512 116.565 8.2992 117.993 8.09222L123.829 7.24594L126.438 1.96889C127.077 0.677038 128.923 0.677038 129.562 1.96889Z"/>
</svg>
